<svg width="55.339355" height="55.019531" viewBox="0 0 55.3394 55.0195" fill="none" xmlns="http://www.w3.org/2000/svg" xmlns:xlink="http://www.w3.org/1999/xlink">
	<desc>
			Created with Pixso.
	</desc>
	<defs/>
	<path id="Icon" d="M1 27.5L26.71 40.36C27.06 40.54 27.24 40.62 27.42 40.66C27.58 40.69 27.75 40.69 27.91 40.66C28.09 40.62 28.27 40.54 28.62 40.36L54.33 27.5M1 40.84L26.71 53.69C27.06 53.87 27.24 53.96 27.42 53.99C27.58 54.02 27.75 54.02 27.91 53.99C28.09 53.96 28.27 53.87 28.62 53.69L54.33 40.84M1 14.17L26.71 27.03C27.06 27.2 27.24 27.29 27.42 27.32C27.58 27.35 27.75 27.35 27.91 27.32C28.09 27.29 28.27 27.2 28.62 27.03L54.33 14.17L28.62 1.32C28.27 1.14 28.09 1.05 27.91 1.02C27.75 0.99 27.58 0.99 27.42 1.02C27.24 1.05 27.06 1.14 26.71 1.32L1 14.17Z" stroke="#FFFFFF" stroke-opacity="1.000000" stroke-width="2.000000" stroke-linejoin="round" stroke-linecap="round"/>
</svg>
