<svg width="24.000000" height="24.000000" viewBox="0 0 24 24" fill="none" xmlns="http://www.w3.org/2000/svg" xmlns:xlink="http://www.w3.org/1999/xlink">
	<desc>
			Created with Pixso.
	</desc>
	<defs>
		<clipPath id="clip4_2644">
			<rect id="Interface / Lock" rx="-0.500000" width="23.000000" height="23.000000" transform="translate(0.500000 0.500000)" fill="white" fill-opacity="0"/>
		</clipPath>
	</defs>
	<g clip-path="url(#clip4_2644)">
		<path id="Vector" d="M4 12.2C4 11.08 4 10.51 4.21 10.09C4.4 9.71 4.71 9.4 5.09 9.21C5.51 9 6.08 9 7.2 9L9.23 9L14.76 9L16.8 9C17.92 9 18.47 9 18.9 9.21C19.28 9.4 19.59 9.71 19.78 10.09C20 10.51 20 11.07 20 12.19L20 17.8C20 18.92 20 19.48 19.78 19.9C19.59 20.28 19.28 20.59 18.9 20.78C18.48 21 17.92 21 16.8 21L7.19 21C6.07 21 5.51 21 5.09 20.78C4.71 20.59 4.4 20.28 4.21 19.9C4 19.48 4 18.92 4 17.8L4 12.2ZM9.23 9C9.1 9 9 8.89 9 8.76L9 6C9 4.34 10.34 3 12 3C13.65 3 15 4.34 15 6L15 8.76C15 8.89 14.89 9 14.76 9" stroke="#FFFFFF" stroke-opacity="1.000000" stroke-width="1.000000" stroke-linejoin="round"/>
	</g>
</svg>
