<svg width="24.000000" height="24.000000" viewBox="0 0 24 24" fill="none" xmlns="http://www.w3.org/2000/svg" xmlns:xlink="http://www.w3.org/1999/xlink">
	<desc>
			Created with Pixso.
	</desc>
	<defs/>
	<mask id="mask8_301" mask-type="alpha" maskUnits="userSpaceOnUse" x="5.000000" y="2.000000" width="14.000000" height="19.000000">
		<rect id="Icon Mask" rx="-0.500000" width="24.000000" height="24.000000" transform="translate(5.500000 2.500000)" fill="#FFFFFF" fill-opacity="0"/>
		<path id="Round" d="M5 8.83105C5 5.0542 8.12988 2 12 2C15.8701 2 19 5.0542 19 8.83105C19 12.9004 14.5801 18.5117 12.77 20.6489C12.3701 21.1172 11.6399 21.1172 11.24 20.6489C9.41992 18.5117 5 12.9004 5 8.83105ZM9 8.5C9 9.87988 10.1201 11 11.5 11C12.8799 11 14 9.87988 14 8.5C14 7.12012 12.8799 6 11.5 6C10.1201 6 9 7.12012 9 8.5Z" clip-rule="evenodd" fill="#000000" fill-opacity="1.000000" fill-rule="evenodd"/>
	</mask>
	<g mask="url(#mask8_301)">
		<rect id="Color Fill" width="24.000000" height="24.000000" fill="#FFFFFF" fill-opacity="1.000000"/>
	</g>
</svg>
