<svg width="50.000000" height="38.000000" viewBox="0 0 50 38" fill="none" xmlns="http://www.w3.org/2000/svg" xmlns:xlink="http://www.w3.org/1999/xlink">
	<desc>
			Created with Pixso.
	</desc>
	<defs/>
	<path id="Vector" d="M49 0L1 0C0.73 0 0.48 0.1 0.29 0.29C0.1 0.48 0 0.73 0 1L0 37C0 37.26 0.1 37.51 0.29 37.7C0.48 37.89 0.73 38 1 38L49 38C49.26 38 49.51 37.89 49.7 37.7C49.89 37.51 50 37.26 50 37L50 1C50 0.73 49.89 0.48 49.7 0.29C49.51 0.1 49.26 0 49 0ZM14 24L14 14L36 14L36 24L14 24ZM2 24L2 14L12 14L12 24L2 24ZM38 14L48 14L48 24L38 24L38 14ZM48 12L26 12L26 2L48 2L48 12ZM24 2L24 12L2 12L2 2L24 2ZM2 26L24 26L24 36L2 36L2 26ZM26 36L26 26L48 26L48 36L26 36Z" fill="#FFFFFF" fill-opacity="1.000000" fill-rule="nonzero"/>
</svg>
