<svg width="50.000000" height="50.000000" viewBox="0 0 50 50" fill="none" xmlns="http://www.w3.org/2000/svg" xmlns:xlink="http://www.w3.org/1999/xlink">
	<desc>
			Created with Pixso.
	</desc>
	<defs/>
	<path id="Icon" d="M1 25L49 25M25 1L25 49M36.2 1C40.68 1 42.92 1 44.63 1.87C46.13 2.63 47.36 3.86 48.12 5.36C49 7.07 49 9.31 49 13.79L49 36.2C49 40.68 49 42.92 48.12 44.63C47.36 46.13 46.13 47.36 44.63 48.12C42.92 49 40.68 49 36.2 49L13.8 49C9.31 49 7.07 49 5.36 48.12C3.86 47.36 2.63 46.13 1.87 44.63C1 42.92 1 40.68 1 36.2L1 13.79C1 9.31 1 7.07 1.87 5.36C2.63 3.86 3.86 2.63 5.36 1.87C7.07 1 9.31 1 13.8 1L36.2 1Z" stroke="#FFFFFF" stroke-opacity="1.000000" stroke-width="2.000000" stroke-linejoin="round" stroke-linecap="round"/>
</svg>
